<svg width="68" height="69" viewBox="0 0 68 69" fill="none" xmlns="http://www.w3.org/2000/svg">
<circle cx="34" cy="34" r="34" fill="#E13636"/>
<path d="M48.7188 22.8462C37.557 24.0769 38.2546 33.1026 39.9987 37.4615C41 35 45 28.5 49.1063 27.0769C47.5 29 42.2539 36.3242 41.3551 39C43 37.5 45.5 36.3751 48.7188 34.1923C58.0203 27.8846 57.6327 21.4359 56.2762 19C55.1135 19.9615 52.6501 22.4127 48.7188 22.8462Z" stroke="white" stroke-width="3" stroke-linecap="round"/>
<path d="M29.5767 30.176C38.0838 33.1974 36.3437 43.269 34.4103 47.927C29.5767 34.3305 22.8097 33.9528 22.2297 33.9528C23.4993 35 30.3501 44.9056 32.2835 47.927C36.305 55.1785 36.1504 63.6638 35.5703 67H33.0569C33.3147 65.9928 33.8689 63.3743 34.0236 60.9571C34.4103 54.7253 32.0902 50.7597 30.3501 48.3047C28.61 45.8498 19.4993 42 18.3628 40.1845C10.2424 32.4421 11.4993 24.5 12.5625 23C12.7559 26.588 27.6433 29.4206 29.5767 30.176Z" stroke="white" stroke-width="3" stroke-linecap="round"/>
</svg>
