<svg width="114" height="134" viewBox="0 0 114 134" fill="none" xmlns="http://www.w3.org/2000/svg">
<path d="M18.8169 72.8042L55.7836 44.3017C56.501 43.7486 57.5005 43.7467 58.22 44.297L95.4947 72.8089C95.8436 73.0757 96.2706 73.2203 96.7098 73.2203H108.12C110.03 73.2203 110.853 70.7996 109.34 69.6352L58.2195 30.3069C57.5006 29.7538 56.4994 29.7538 55.7805 30.3069L4.66014 69.6352C3.14659 70.7996 3.97002 73.2203 5.87966 73.2203H17.5957C18.0375 73.2203 18.467 73.074 18.8169 72.8042Z" stroke="#E13636" stroke-width="4"/>
<path d="M16.418 73.5312V130C16.418 131.105 17.3134 132 18.418 132H96.2006C97.3052 132 98.2006 131.105 98.2006 130V73.5312" stroke="#E13636" stroke-width="4"/>
<path d="M79.9219 45.5407V32.4785H96.0306V57.6699L79.9219 45.5407Z" stroke="#E13636" stroke-width="4"/>
<path d="M99.8151 4.08963C99.1489 3.42715 98.3581 2.90163 97.4876 2.54309C96.6171 2.18454 95.6841 2 94.7419 2C93.7997 2 92.8667 2.18454 91.9962 2.54309C91.1257 2.90163 90.3348 3.42715 89.6687 4.08963L88.2863 5.46385L86.9039 4.08963C85.5584 2.75211 83.7336 2.00069 81.8308 2.00069C79.928 2.00069 78.1031 2.75211 76.7576 4.08963C75.4121 5.42715 74.6563 7.24121 74.6562 9.13275C74.6562 11.0243 75.4121 12.8384 76.7576 14.1759L78.14 15.5501L88.2863 25.6364L98.4327 15.5501L99.8151 14.1759C100.481 13.5137 101.01 12.7275 101.371 11.8622C101.731 10.9969 101.917 10.0694 101.917 9.13275C101.917 8.1961 101.731 7.26862 101.371 6.4033C101.01 5.53798 100.481 4.75179 99.8151 4.08963Z" stroke="#E13636" stroke-width="4" stroke-linecap="round" stroke-linejoin="round"/>
<path d="M72.147 84.1517C71.2429 83.2513 70.1695 82.537 68.988 82.0497C67.8066 81.5624 66.5402 81.3115 65.2614 81.3115C63.9825 81.3115 62.7162 81.5624 61.5348 82.0497C60.3533 82.537 59.2799 83.2513 58.3758 84.1517L56.4995 86.0195L54.6233 84.1517C52.7971 82.3338 50.3203 81.3125 47.7377 81.3125C45.1551 81.3125 42.6783 82.3338 40.8521 84.1517C39.0259 85.9697 38 88.4353 38 91.0063C38 93.5772 39.0259 96.0429 40.8521 97.8608L42.7284 99.7287L56.4995 113.438L70.2707 99.7287L72.147 97.8608C73.0515 96.9608 73.769 95.8922 74.2585 94.7161C74.748 93.54 75 92.2794 75 91.0063C75 89.7332 74.748 88.4726 74.2585 87.2964C73.769 86.1203 73.0515 85.0517 72.147 84.1517Z" stroke="#E13636" stroke-width="4" stroke-linecap="round" stroke-linejoin="round"/>
</svg>
