<svg width="68" height="68" viewBox="0 0 68 68" fill="none" xmlns="http://www.w3.org/2000/svg">
<circle cx="34" cy="34" r="34" fill="#E13636"/>
<path d="M42.2424 38.9595C37.4375 28.247 36.7381 21.6732 37.324 17.6597C37.4589 16.7353 36.4438 15.9486 35.7145 16.5324C28.9245 21.9684 28.1 31.6049 29.6219 36.2919C29.8735 37.0671 29.4239 37.5841 28.9076 36.9535C27.9115 35.737 26.8822 33.7202 26.1414 32.0453C25.8417 31.3676 24.9396 31.2042 24.4766 31.7827C20.486 36.7695 18.1378 43.9796 27.6942 50.3894C27.741 50.4208 27.7946 50.4503 27.8462 50.473C40.5214 56.0595 44.9352 44.9633 42.2424 38.9595Z" stroke="white" stroke-width="4" stroke-linecap="round"/>
</svg>
